<svg width="100" height="101" viewBox="0 0 100 101" fill="none" xmlns="http://www.w3.org/2000/svg">
<path d="M69.8835 14.1431H19.1348C16.3062 14.1431 13.9767 16.4725 13.9767 19.3012V70.0499H6.32279C2.82862 70.0499 0 67.2213 0 63.7271V6.32279C0 2.82862 2.82862 0 6.32279 0H63.7271C67.2213 0 70.0499 2.82862 70.0499 6.32279V14.1431H69.8835Z" fill="white"/>
<path d="M36.2729 30.1165H93.6772C97.1714 30.1165 100 32.9451 100 36.4393V93.8436C100 97.3378 97.1714 100.166 93.6772 100.166H36.2729C32.7787 100.166 29.9501 97.3378 29.9501 93.8436V36.2729C29.9501 32.9451 32.7787 30.1165 36.2729 30.1165Z" fill="white"/>
</svg>
