<svg width="32" height="26" viewBox="0 0 32 26" fill="none" xmlns="http://www.w3.org/2000/svg">
<path d="M31 24C30.4 24 30 23.6 30 23V10C30 9.4 30.4 9 31 9C31.6 9 32 9.4 32 10V23C32 23.6 31.6 24 31 24Z" fill="white"/>
<path d="M16 19C15.8 19 15.7 19 15.5 18.9L0.5 10.9C0.2 10.7 0 10.4 0 10C0 9.60001 0.2 9.30001 0.5 9.10001L15.5 1.10001C15.8 0.900012 16.1 0.900012 16.4 1.10001L31.4 9.10001C31.7 9.30001 31.9 9.60001 31.9 10C31.9 10.4 31.7 10.7 31.4 10.9L16.4 18.9C16.3 19 16.2 19 16 19Z" fill="white"/>
<path d="M17.4 20.6C17 20.9 16.5 21 16 21C15.5 21 15 20.9 14.6 20.6L6 16.1V20C6 23.1 10.9 26 16 26C21.1 26 26 23.1 26 20V16.1L17.4 20.6Z" fill="white"/>
</svg>
