<svg width="126" height="101" viewBox="0 0 126 101" fill="none" xmlns="http://www.w3.org/2000/svg">
<path d="M119.539 0H6.46144C2.89283 0 0 2.89283 0 6.46168V40.4123C0 43.9809 2.89283 46.8737 6.46144 46.8737H119.538C123.107 46.8737 126 43.9809 126 40.4123V6.46168C126 2.89283 123.107 0 119.539 0ZM70.8078 26.6677H23.1065C21.3221 26.6677 19.8758 25.2212 19.8758 23.437C19.8758 21.6528 21.3223 20.2063 23.1065 20.2063H70.8078C72.5922 20.2063 74.0385 21.6526 74.0385 23.437C74.0385 25.2214 72.5922 26.6677 70.8078 26.6677ZM95.7221 32.9913C90.4537 32.9913 86.1678 28.7054 86.1678 23.437C86.1678 18.1689 90.4537 13.8826 95.7221 13.8826C100.99 13.8826 105.276 18.1689 105.276 23.437C105.276 28.7051 100.99 32.9913 95.7221 32.9913Z" fill="white"/>
<path d="M119.539 53.3352H6.46144C2.89283 53.3352 0 56.228 0 59.7966V93.7472C0 97.3158 2.89283 100.209 6.46144 100.209H119.538C123.107 100.209 126 97.3158 126 93.7472V59.7966C126 56.2283 123.107 53.3352 119.539 53.3352ZM70.8078 80.0029H23.1065C21.3221 80.0029 19.8758 78.5563 19.8758 76.7722C19.8758 74.9877 21.3223 73.5414 23.1065 73.5414H70.8078C72.5922 73.5414 74.0385 74.988 74.0385 76.7722C74.0385 78.5563 72.5922 80.0029 70.8078 80.0029ZM95.7221 86.3265C90.4537 86.3265 86.1678 82.0405 86.1678 76.7722C86.1678 71.504 90.4537 67.2178 95.7221 67.2178C100.99 67.2178 105.276 71.5038 105.276 76.7722C105.276 82.0405 100.99 86.3265 95.7221 86.3265Z" fill="white"/>
</svg>
